<?xml version="1.0" standalone="no"?>
<!DOCTYPE svg PUBLIC "-//W3C//DTD SVG 20010904//EN"
 "http://www.w3.org/TR/2001/REC-SVG-20010904/DTD/svg10.dtd">
<svg version="1.0" xmlns="http://www.w3.org/2000/svg"
 width="500.000000pt" height="500.000000pt" viewBox="0 0 500.000000 500.000000"
 preserveAspectRatio="xMidYMid meet">

<g transform="translate(0.000000,500.000000) scale(0.100000,-0.100000)"
fill="#000000" stroke="none">
<path d="M2070 3163 c-49 -34 -49 -35 -50 -281 l0 -234 29 -29 29 -29 419 0
c459 0 446 -2 478 60 21 41 22 415 1 465 -27 65 -30 65 -478 65 -364 0 -406
-2 -428 -17z m410 -278 l0 -255 -188 0 c-154 0 -192 3 -210 16 -22 15 -22 19
-22 234 l0 219 26 20 c25 20 40 21 210 21 l184 0 0 -255z m440 235 c19 -19 20
-33 20 -237 0 -187 -2 -219 -17 -235 -14 -16 -35 -18 -210 -18 l-193 0 0 255
0 255 190 0 c177 0 191 -1 210 -20z"/>
<path d="M2202 2890 c-42 -125 -48 -152 -36 -157 19 -7 26 1 40 40 10 30 14
32 61 35 l51 3 14 -43 c15 -45 41 -58 45 -23 4 36 -90 290 -108 293 -13 2 -27
-29 -67 -148z m86 3 c11 -32 10 -33 -19 -33 -32 0 -34 3 -18 49 13 36 21 32
37 -16z"/>
<path d="M2717 3033 c-4 -3 -7 -23 -7 -44 0 -37 -1 -38 -42 -41 -31 -2 -44 -8
-46 -20 -3 -15 4 -18 43 -18 46 0 47 0 40 -27 -3 -16 -25 -52 -47 -80 -24 -31
-38 -59 -34 -68 9 -25 22 -18 67 41 l42 55 26 -33 c54 -69 65 -78 80 -69 12 8
10 17 -15 52 -82 117 -83 126 -21 131 29 2 42 8 42 18 0 10 -13 16 -42 18 -40
3 -43 5 -43 32 0 50 -21 76 -43 53z"/>
<path d="M2241 2406 c-6 -6 -12 -54 -13 -106 l-3 -93 -79 101 c-111 144 -116
142 -116 -48 0 -143 1 -150 20 -150 19 0 20 7 20 105 0 58 3 105 8 105 4 -1
43 -48 86 -106 51 -67 85 -104 95 -102 23 5 29 293 7 301 -8 3 -19 0 -25 -7z"/>
<path d="M2455 2410 c-17 -5 -44 -23 -60 -40 -24 -26 -30 -40 -33 -94 -5 -75
13 -117 61 -146 35 -22 118 -27 161 -10 25 9 26 14 26 80 l0 71 -52 -3 c-58
-3 -72 -21 -20 -26 30 -3 32 -6 32 -42 0 -34 -4 -41 -25 -46 -37 -9 -90 3
-110 26 -11 13 -20 42 -23 75 -4 50 -2 56 27 86 32 32 54 34 146 18 31 -6 32
29 0 41 -41 16 -97 20 -130 10z"/>
<path d="M1442 2263 l3 -148 89 -3 c63 -2 92 1 97 10 14 22 -1 28 -71 28 l-69
0 -3 128 c-3 124 -4 127 -26 130 l-23 3 3 -148z"/>
<path d="M1793 2398 c-21 -28 -123 -269 -118 -278 13 -20 36 -9 52 25 l17 35
77 0 c77 0 77 0 88 -30 11 -32 36 -49 51 -34 5 5 -17 67 -54 149 -47 106 -68
141 -83 143 -11 2 -24 -3 -30 -10z m53 -103 c13 -31 24 -60 24 -65 0 -6 -25
-10 -56 -10 -41 0 -55 3 -51 13 34 80 50 117 54 117 2 0 15 -25 29 -55z"/>
<path d="M2700 2260 c0 -141 1 -150 19 -150 24 0 31 19 31 81 l0 49 65 0 c58
0 65 2 65 20 0 18 -7 20 -65 20 l-65 0 0 45 0 44 67 3 c55 2 68 6 71 21 3 15
-6 17 -92 17 l-96 0 0 -150z"/>
<path d="M2957 2403 c-4 -3 -7 -66 -7 -138 0 -102 3 -135 14 -144 9 -8 45 -11
97 -9 70 3 84 6 87 20 3 15 -7 18 -70 20 l-73 3 -3 128 c-2 115 -4 127 -21
127 -10 0 -21 -3 -24 -7z"/>
<path d="M3212 2263 c3 -140 4 -148 23 -148 19 0 20 8 23 148 l3 147 -26 0
-26 0 3 -147z"/>
<path d="M3336 2401 c-3 -4 15 -35 39 -67 24 -33 45 -63 45 -68 0 -5 -19 -34
-41 -64 -46 -60 -53 -84 -27 -90 11 -2 31 16 58 52 22 31 43 56 45 56 2 0 23
-25 46 -55 26 -35 48 -55 58 -53 25 6 17 31 -28 90 -22 30 -41 59 -41 64 0 5
21 35 45 68 24 32 42 63 39 67 -13 21 -43 5 -77 -41 -21 -28 -42 -48 -47 -45
-5 3 -24 26 -41 50 -30 42 -61 57 -73 36z"/>
<path d="M1632 1918 c-2 -44 0 -48 21 -47 16 1 17 3 5 6 -12 3 -18 17 -21 46
l-4 42 -1 -47z"/>
<path d="M1726 1919 c-9 -23 -14 -44 -11 -47 3 -3 5 0 5 6 0 7 14 12 30 12 17
0 30 -5 30 -12 0 -6 2 -9 5 -6 6 6 -28 88 -36 88 -4 0 -14 -19 -23 -41z m29
-17 c-22 -5 -27 1 -19 23 7 17 8 17 21 -1 12 -17 12 -19 -2 -22z"/>
<path d="M1832 1915 c1 -45 1 -46 7 -15 l6 35 27 -35 28 -35 -2 50 c-1 38 -2
42 -5 16 l-4 -34 -29 34 -29 34 1 -50z"/>
<path d="M1968 1949 c-22 -12 -23 -52 -3 -69 18 -15 49 -9 51 10 0 9 -1 10 -3
3 -5 -14 -14 -16 -37 -7 -23 9 -20 40 6 58 25 18 13 21 -14 5z"/>
<path d="M2071 1923 c-1 -34 3 -43 19 -48 31 -10 50 12 49 54 l-2 36 -6 -40
c-5 -31 -10 -40 -26 -40 -16 0 -21 9 -26 40 l-6 40 -2 -42z"/>
<path d="M2201 1921 c-13 -24 -20 -46 -17 -49 3 -3 6 0 6 6 0 16 57 15 63 0 4
-9 6 -8 6 2 0 8 -8 31 -18 49 l-19 35 -21 -43z m39 -13 c0 -5 -7 -8 -15 -8
-15 0 -20 21 -8 33 7 7 23 -11 23 -25z"/>
<path d="M2318 1949 c-22 -12 -23 -52 -3 -69 18 -15 49 -9 51 10 0 9 -1 10 -3
3 -5 -14 -14 -16 -37 -7 -23 9 -20 40 6 58 25 18 13 21 -14 5z"/>
<path d="M2420 1915 c0 -44 0 -45 33 -44 30 2 30 2 5 6 -34 5 -37 30 -5 36
l22 4 -22 2 c-33 2 -29 29 5 34 25 4 25 4 -5 6 -33 1 -33 0 -33 -44z"/>
<path d="M2582 1918 c-2 -46 -1 -48 26 -47 22 1 23 2 5 6 -18 3 -23 13 -26 46
l-4 42 -1 -47z"/>
<path d="M2670 1915 c0 -44 0 -45 33 -44 30 2 30 2 5 6 -34 5 -37 30 -5 36
l22 4 -22 2 c-33 2 -29 29 5 34 25 4 25 4 -5 6 -33 1 -33 0 -33 -44z"/>
<path d="M2782 1915 c-12 -25 -17 -45 -12 -45 6 0 10 5 10 10 0 14 44 12 59
-2 14 -14 -13 60 -28 75 -4 4 -17 -13 -29 -38z m38 -1 c0 -8 -7 -14 -15 -14
-17 0 -18 2 -9 24 7 18 24 12 24 -10z"/>
<path d="M2891 1913 c1 -27 3 -40 6 -30 2 9 11 17 18 17 8 0 19 -8 25 -17 7
-12 10 -13 7 -3 -2 8 0 23 4 32 11 20 -13 48 -42 48 -16 0 -19 -7 -18 -47z
m48 24 c13 -16 5 -27 -21 -27 -11 0 -18 7 -18 20 0 23 22 27 39 7z"/>
<path d="M3007 1953 c-4 -3 -6 -25 -5 -47 1 -37 2 -38 5 -8 5 40 14 40 36 2
25 -42 37 -37 36 13 -2 29 -3 34 -6 15 -5 -35 -13 -35 -39 2 -11 17 -24 27
-27 23z"/>
<path d="M3191 1915 c2 -46 2 -47 8 -15 l6 35 20 -32 c11 -18 23 -33 27 -33 4
0 7 21 7 48 -2 44 -2 45 -8 12 l-6 -35 -27 35 -28 35 1 -50z"/>
<path d="M3318 1949 c-25 -14 -23 -56 2 -69 26 -14 60 -4 60 18 0 13 -2 13
-14 -3 -15 -20 -43 -15 -52 10 -8 21 16 47 38 42 10 -3 16 -1 12 4 -7 12 -25
11 -46 -2z"/>
<path d="M3123 1910 c0 -25 2 -35 4 -22 2 12 2 32 0 45 -2 12 -4 2 -4 -23z"/>
<path d="M2031 1743 c1 -27 3 -40 6 -31 2 9 14 18 26 20 43 6 30 57 -15 58
-15 0 -18 -8 -17 -47z m47 14 c2 -12 -3 -17 -17 -17 -15 0 -21 6 -21 21 0 25
33 22 38 -4z"/>
<path d="M2232 1745 c-12 -25 -17 -45 -12 -45 6 0 10 5 10 10 0 14 44 12 59
-2 14 -14 -13 60 -28 75 -4 4 -17 -13 -29 -38z m38 -1 c0 -8 -7 -14 -15 -14
-17 0 -18 2 -9 24 7 18 24 12 24 -10z"/>
<path d="M2343 1778 c9 -7 18 -29 20 -48 4 -34 4 -34 5 7 1 23 8 44 15 46 6 3
-3 6 -22 6 -30 1 -32 -1 -18 -11z"/>
<path d="M2442 1745 c-12 -25 -17 -45 -12 -45 6 0 10 5 10 10 0 14 44 12 59
-2 14 -14 -13 60 -28 75 -4 4 -17 -13 -29 -38z m38 -1 c0 -8 -7 -14 -15 -14
-17 0 -18 2 -9 24 7 18 24 12 24 -10z"/>
<path d="M2551 1743 c1 -27 4 -38 6 -26 2 13 13 24 26 26 l22 4 -22 2 c-33 2
-29 29 5 34 25 4 25 4 -5 6 -33 1 -33 1 -32 -46z"/>
<path d="M2658 1779 c-22 -12 -23 -52 -3 -69 19 -16 45 -9 62 17 13 19 12 24
-6 42 -24 24 -29 25 -53 10z m36 -5 c18 -7 22 -49 6 -59 -33 -20 -65 26 -38
53 14 14 12 14 32 6z"/>
<path d="M2771 1743 c1 -27 3 -40 6 -30 2 9 11 17 18 17 8 0 19 -8 25 -17 7
-12 10 -13 7 -3 -2 8 0 23 4 32 11 20 -13 48 -42 48 -16 0 -19 -7 -18 -47z
m48 24 c13 -16 5 -27 -21 -27 -11 0 -18 7 -18 20 0 23 22 27 39 7z"/>
<path d="M2887 1784 c-4 -4 -6 -26 -6 -48 l2 -41 6 35 7 35 16 -30 16 -30 14
30 13 29 6 -34 c6 -33 6 -32 8 13 0 26 -1 47 -4 47 -2 0 -12 -14 -21 -32 l-16
-32 -17 32 c-9 18 -20 30 -24 26z"/>
<path d="M2131 1743 c-1 -41 1 -43 27 -42 23 0 24 1 7 8 -12 5 -22 21 -26 42
-6 34 -6 33 -8 -8z"/>
</g>
</svg>
