<?xml version="1.0" standalone="no"?>
<!DOCTYPE svg PUBLIC "-//W3C//DTD SVG 20010904//EN"
 "http://www.w3.org/TR/2001/REC-SVG-20010904/DTD/svg10.dtd">
<svg version="1.0" xmlns="http://www.w3.org/2000/svg"
 width="500.000000pt" height="500.000000pt" viewBox="0 0 500.000000 500.000000"
 preserveAspectRatio="xMidYMid meet">

<g transform="translate(0.000000,500.000000) scale(0.100000,-0.100000)"
fill="#fbbf24" stroke="none">
<path d="M2070 3163 c-49 -34 -49 -35 -50 -281 l0 -234 29 -29 29 -29 419 0
c459 0 446 -2 478 60 21 41 22 415 1 465 -27 65 -30 65 -478 65 -364 0 -406
-2 -428 -17z m410 -278 l0 -255 -188 0 c-154 0 -192 3 -210 16 -22 15 -22 19
-22 234 l0 219 26 20 c25 20 40 21 210 21 l184 0 0 -255z m440 235 c19 -19 20
-33 20 -237 0 -187 -2 -219 -17 -235 -14 -16 -35 -18 -210 -18 l-193 0 0 255
0 255 190 0 c177 0 191 -1 210 -20z"/>
<path d="M2202 2890 c-42 -125 -48 -152 -36 -157 19 -7 26 1 40 40 10 30 14
32 61 35 l51 3 14 -43 c15 -45 41 -58 45 -23 4 36 -90 290 -108 293 -13 2 -27
-29 -67 -148z m86 3 c11 -32 10 -33 -19 -33 -32 0 -34 3 -18 49 13 36 21 32
37 -16z"/>
<path d="M2717 3033 c-4 -3 -7 -23 -7 -44 0 -37 -1 -38 -42 -41 -31 -2 -44 -8
-46 -20 -3 -15 4 -18 43 -18 46 0 47 0 40 -27 -3 -16 -25 -52 -47 -80 -24 -31
-38 -59 -34 -68 9 -25 22 -18 67 41 l42 55 26 -33 c54 -69 65 -78 80 -69 12 8
10 17 -15 52 -82 117 -83 126 -21 131 29 2 42 8 42 18 0 10 -13 16 -42 18 -40
3 -43 5 -43 32 0 50 -21 76 -43 53z"/>
<path d="M2241 2406 c-6 -6 -12 -54 -13 -106 l-3 -93 -79 101 c-111 144 -116
142 -116 -48 0 -143 1 -150 20 -150 19 0 20 7 20 105 0 58 3 105 8 105 4 -1
43 -48 86 -106 51 -67 85 -104 95 -102 23 5 29 293 7 301 -8 3 -19 0 -25 -7z"/>
<path d="M2455 2410 c-17 -5 -44 -23 -60 -40 -24 -26 -30 -40 -33 -94 -5 -75
13 -117 61 -146 35 -22 118 -27 161 -10 25 9 26 14 26 80 l0 71 -52 -3 c-58
-3 -72 -21 -20 -26 30 -3 32 -6 32 -42 0 -34 -4 -41 -25 -46 -37 -9 -90 3
-110 26 -11 13 -20 42 -23 75 -4 50 -2 56 27 86 32 32 54 34 146 18 31 -6 32
29 0 41 -41 16 -97 20 -130 10z"/>
<path d="M1442 2263 l3 -148 89 -3 c63 -2 92 1 97 10 14 22 -1 28 -71 28 l-69
0 -3 128 c-3 124 -4 127 -26 130 l-23 3 3 -148z"/>
<path d="M1793 2398 c-21 -28 -123 -269 -118 -278 13 -20 36 -9 52 25 l17 35
77 0 c77 0 77 0 88 -30 11 -32 36 -49 51 -34 5 5 -17 67 -54 149 -47 106 -68
141 -83 143 -11 2 -24 -3 -30 -10z m53 -103 c13 -31 24 -60 24 -65 0 -6 -25
-10 -56 -10 -41 0 -55 3 -51 13 34 80 50 117 54 117 2 0 15 -25 29 -55z"/>
<path d="M2700 2260 c0 -141 1 -150 19 -150 24 0 31 19 31 81 l0 49 65 0 c58
0 65 2 65 20 0 18 -7 20 -65 20 l-65 0 0 45 0 44 67 3 c55 2 68 6 71 21 3 15
-6 17 -92 17 l-96 0 0 -150z"/>
<path d="M2957 2403 c-4 -3 -7 -66 -7 -138 0 -102 3 -135 14 -144 9 -8 45 -11
97 -9 70 3 84 6 87 20 3 15 -7 18 -70 20 l-73 3 -3 128 c-2 115 -4 127 -21
127 -10 0 -21 -3 -24 -7z"/>
<path d="M3212 2263 c3 -140 4 -148 23 -148 19 0 20 8 23 148 l3 147 -26 0
-26 0 3 -147z"/>
<path d="M3336 2401 c-3 -4 15 -35 39 -67 24 -33 45 -63 45 -68 0 -5 -19 -34
-41 -64 -46 -60 -53 -84 -27 -90 11 -2 31 16 58 52 22 31 43 56 45 56 2 0 23
-25 46 -55 26 -35 48 -55 58 -53 25 6 17 31 -28 90 -22 30 -41 59 -41 64 0 5
21 35 45 68 24 32 42 63 39 67 -13 21 -43 5 -77 -41 -21 -28 -42 -48 -47 -45
-5 3 -24 26 -41 50 -30 42 -61 57 -73 36z"/>
</g>
</svg>
