<?xml version="1.0" standalone="no"?>
<!DOCTYPE svg PUBLIC "-//W3C//DTD SVG 20010904//EN"
 "http://www.w3.org/TR/2001/REC-SVG-20010904/DTD/svg10.dtd">
<svg version="1.0" xmlns="http://www.w3.org/2000/svg"
 width="500.000000pt" height="500.000000pt" viewBox="0 0 500.000000 500.000000"
 preserveAspectRatio="xMidYMid meet">

<g transform="translate(0.000000,500.000000) scale(0.100000,-0.100000)"
fill="#000000" stroke="none">
<path d="M784 3021 c-51 -23 -108 -90 -123 -144 -9 -29 -11 -140 -9 -368 l3
-326 30 -49 c19 -30 49 -60 79 -79 48 -29 53 -30 198 -33 l148 -4 0 -57 c0
-65 17 -98 45 -87 10 3 69 38 130 76 l113 70 1513 0 c1502 0 1514 1 1559 21
55 25 95 62 123 114 21 39 22 51 22 380 0 331 -1 341 -22 381 -12 23 -36 53
-54 68 -71 60 62 56 -1908 56 -1733 0 -1808 -1 -1847 -19z m169 -243 c15 -18
17 -44 17 -209 l0 -189 105 0 c92 0 108 -3 125 -20 24 -24 25 -48 4 -78 -15
-21 -21 -22 -177 -22 -89 0 -167 4 -173 8 -29 19 -34 55 -34 267 0 134 4 224
11 236 22 42 89 46 122 7z m610 10 c27 -25 227 -449 227 -481 0 -45 -55 -71
-99 -48 -9 5 -28 32 -41 60 l-23 51 -118 0 -118 0 -19 -43 c-10 -23 -27 -50
-36 -60 -36 -36 -106 -10 -106 40 0 30 195 451 222 481 14 14 33 22 54 22 20
0 42 -9 57 -22z m502 -132 l120 -149 5 135 c3 93 9 140 19 152 17 20 70 21 97
2 18 -13 19 -30 22 -247 2 -162 0 -241 -9 -261 -13 -33 -50 -46 -84 -30 -13 6
-77 77 -142 158 l-118 148 -3 -140 c-2 -127 -4 -140 -23 -156 -26 -22 -58 -23
-87 -2 -22 15 -22 18 -22 261 0 279 2 287 69 281 33 -3 46 -15 156 -152z m766
133 c54 -24 70 -52 51 -94 -15 -33 -43 -38 -103 -21 -68 21 -105 20 -155 -3
-27 -12 -46 -30 -57 -54 -22 -45 -22 -129 -1 -173 25 -53 97 -82 168 -68 34 6
36 8 36 45 0 35 -3 39 -24 39 -14 0 -36 4 -50 10 -21 8 -26 16 -26 44 0 46 20
56 112 56 111 0 113 -3 113 -145 0 -110 -1 -118 -23 -135 -54 -44 -235 -52
-322 -13 -51 22 -103 70 -127 117 -22 41 -29 181 -13 232 26 79 86 141 167
170 62 22 195 18 254 -7z m520 4 c19 -19 15 -74 -6 -89 -13 -10 -51 -14 -122
-14 l-103 0 0 -50 0 -50 95 0 c82 0 98 -3 115 -20 11 -11 20 -29 20 -40 0 -11
-9 -29 -20 -40 -17 -17 -33 -20 -115 -20 l-95 0 0 -90 c0 -77 -3 -93 -20 -110
-25 -25 -71 -26 -101 -1 -24 19 -24 22 -27 233 -4 239 2 280 46 297 38 14 318
9 333 -6z m162 6 c12 -7 25 -17 29 -23 4 -6 8 -98 8 -203 l0 -193 107 0 c119
0 143 -10 143 -61 0 -54 -16 -59 -192 -59 -136 0 -164 3 -180 17 -16 15 -18
36 -18 252 0 130 4 241 8 247 9 14 44 33 60 34 7 0 23 -5 35 -11z m459 -6 c16
-15 18 -36 18 -260 0 -230 -1 -244 -20 -263 -11 -11 -33 -20 -50 -20 -17 0
-39 9 -50 20 -19 19 -20 33 -20 262 0 211 2 244 17 260 20 23 80 24 105 1z
m226 -17 c16 -19 44 -55 61 -80 18 -25 36 -46 40 -46 4 0 27 27 51 61 23 33
51 69 63 80 42 38 117 14 117 -38 0 -14 -30 -63 -74 -122 l-74 -98 65 -84 c35
-46 71 -97 80 -113 14 -26 13 -31 -5 -55 -42 -57 -87 -41 -159 59 -32 44 -60
80 -64 80 -3 0 -26 -28 -50 -62 -57 -83 -86 -108 -120 -108 -33 0 -69 31 -69
58 0 10 32 61 71 113 39 52 73 99 76 106 2 6 -27 54 -66 106 -73 97 -84 127
-54 159 27 30 76 23 111 -16z"/>
<path d="M1472 2563 c-18 -42 -30 -78 -28 -80 2 -2 33 -3 69 -1 l65 3 -32 77
c-17 43 -34 78 -37 78 -3 0 -20 -34 -37 -77z"/>
</g>
</svg>
