<?xml version="1.0" encoding="UTF-8"?>
<svg version="1.1" viewBox="0 0 2000 2000" width="1280" height="1280" xmlns="http://www.w3.org/2000/svg">
<path transform="translate(956,109)" d="m0 0h731l19 1 17 3 18 6 15 8 16 12 19 19 12 16 9 16 9 27 2 11 1 15v496l-2 19-5 17-9 21-12 18-11 12-10 10-13 10-15 9-11 5-15 5-16 3-12 1-113 1-1 143-4 8-9 7-6 3-11 1-8-3-22-13-20-14-16-11-23-16-20-14-18-12-35-24-23-16-17-12-16-11-24-15-3-1h-170l1 3 2 35 9 3 8 3 1 3h2l5 8 2 6 1 9-2 20-4 16-6 15-7 13-10 14-12 14-14 14-14 11-13 9-16 8-22 7-14 3-9 1-20 1-329 1-10 1-18 13-13 10-38 28-13 10-24 18-13 10-17 12-12 9-13 10-19 14-13 11-16 11-7 4-7 2-11-1-10-6-7-9-2-10v-137l-85-1-18-2-15-4-17-6-17-9-12-9-12-11-7-7-12-16-8-14-6-14-6-20-2-20v-503l2-14 9-27 10-19 10-13 12-13 11-10 15-11 16-8 15-5 20-4 58-1h352l22 1 7 3 5 3 5 9 2 11 54 1v-104l1-21 4-18 7-21 9-17 13-16 7-8 8-8 13-10 13-8 13-6 18-5 13-2z" fill="#3D97CF"/>
<path transform="translate(1158,162)" d="m0 0h383l158 1 14 3 14 5 11 6 9 7 8 9 8 15 5 15 2 14v506l-4 20-6 15-9 12-10 10-11 7-17 6-19 3-146 1-7 3-9 7-4 6-1 3-1 96-1 18-1 1h-5l-30-20-19-14-27-18-13-9-21-14-14-10-19-13-34-24-15-9-8-3-372-1-10-2-20-6-14-7-12-11-7-11-6-16-5-19-1-8v-496l3-19 6-16 6-11 11-12 10-7 15-7 9-3 13-2z" fill="#FDD16E"/>
<path transform="translate(956,109)" d="m0 0h731l19 1 17 3 18 6 15 8 16 12 19 19 12 16 9 16 9 27 2 11 1 15v496l-2 19-5 17-9 21-12 18-11 12-10 10-13 10-15 9-11 5-15 5-16 3-12 1-113 1-1 143-4 8-9 7-6 3-11 1-8-3-22-13-20-14-16-11-23-16-20-14-18-12-35-24-23-16-17-12-16-11-24-15-3-1h-170v6l-3-3-23-1-171-1-14-3-15-5-10-4-17-11-5-4-3-1v-2l-4-2-13-11-8-8-7-9-5-7-3-5v-3h-2l-6-15-7-24-1-14-1-322v-60l-1-6 2-1 1-104 1-21 4-18 7-21 9-17 13-16 7-8 8-8 13-10 13-8 13-6 18-5 13-2zm202 53-213 1-16 3-13 5-14 8-10 9-8 11-6 13-4 14-2 14v496l3 17 8 24 7 12 9 9 11 7 16 6 14 4 7 1 372 1 10 4 16 10 15 11 35 24 14 10 21 14 23 16 21 14 19 14 11 7 15 10h5l1-1 1-18 1-96 3-6 5-6 9-6 4-1 146-1 19-3 17-6 12-8 11-11 9-14 5-14 3-17v-506l-2-14-6-17-7-13-11-12-11-7-16-7-11-3-7-1-158-1z" fill="#2C3E51"/>
<path transform="translate(371,326)" d="m0 0h352l22 1 7 3 5 3 5 9 1 4v9l-8 13-5 2-1 3h-2v2l-5 2-15 1-58 1h-350l-20 4-16 6-10 7-5 4h-2l-1 4-5 5-8 15-4 14-2 12v384l-1 66v55l2 17 4 14 5 12 4 6v3h2v2h2l6 7 10 7 13 7 14 4 9 1 125 1 6 2 8 7 4 6 2 8 1 64v28l1 9 3 7 8-1 13-9 16-12 19-14 14-11 16-12 14-10 15-12 11-8 19-14 4-3h2v-2l6-4 17-13 8-5 7-1 45-1h329l17-4 14-6 13-8 13-11 8-9 9-13 6-14 5-23 2-12 4-10 7-7 11-4 2-2h10l5 3v2h2l5 8 2 6 1 9-2 20-4 16-6 15-7 13-10 14-12 14-14 14-14 11-13 9-16 8-22 7-14 3-9 1-20 1-329 1-10 1-18 13-13 10-38 28-13 10-24 18-13 10-17 12-12 9-13 10-19 14-13 11-16 11-7 4-7 2-11-1-10-6-7-9-2-10v-137l-85-1-18-2-15-4-17-6-17-9-12-9-12-11-7-7-12-16-8-14-6-14-6-20-2-20v-503l2-14 9-27 10-19 10-13 12-13 11-10 15-11 16-8 15-5 20-4z" fill="#2C3E50"/>
<path transform="translate(1350,272)" d="m0 0 9 1 9 6 14 18 8 10 13 20 11 17 4 5v2l15 2-2-7-3-9-10-31-1-5v-9l4-8 7-7 7-4 13-1 8 3 6 5 8 13 8 19 7 25 3 11v5h26l3-1 4-7 10-16 13-25 11-17 9-10 6-4 5-1h9l8 3 9 8 5 10-1 12-9 20-11 19-3 4 1 4 10 7 12 11 1 14v69l-1 100-3 6-4 4h-2v2l-8 4-4 1-87 1v55l62 1 9 4 5 4 5 8 1 3v11l-3 8-8 9-8 4-4 1h-58v23l-2 14-5 8-9 7-5 2h-14l-6-3-5-5-6-7-2-7v-32h-59l-10-3-8-7-4-9-1-8 2-11 6-8 8-5 3-1 45-1h18v-55l-88-1-7-2-12-12-1-3-1-30v-28l1-123 7-8 8-8 1-2v-6l-7-12-10-13-9-12-3-11 1-6 2-9 8-7 10-5z" fill="#2C3E50"/>
<path transform="translate(1095,1160)" d="m0 0h9l17 2 21 5 14 7 9 7 7 8 4 9 2 12 2 23 2 9 5 8 9 4 41 7 16 6 11 6 13 9 13 12 9 11 10 16 7 15 6 19 3 14 2 20v11l-2 19-5 19-6 15-7 12-10 13-9 9-14 10-15 8-18 6-18 4-10 1h-12l-42-4-14 2-4 1h-13l-14-7-11-10-8-14-3-9-4-32-1-25v-74l1-51 5-120 1-12zm116 171-11 4-10 9-7 9-5 11-4 15-1 6v15l3 18 6 15 7 9 6 5 8 3h14l11-4 8-6 8-10 4-8 4-15 1-9v-16l-2-17-5-15-6-9-8-6-8-3-5-1z" fill="#FAB72F"/>
<path transform="translate(1006,1248)" d="m0 0h30l1 5-3 33-1 21v88l2 41 2 20 4 18 8 16 6 8-8 5-12 5-11 3h-9l-25-6-11-1-44 7-9 1h-30l-20-4-16-6-17-9-10-8-10-9-8-9-8-13-7-14-5-17-3-20v-23l3-20 5-17 8-17 7-11 8-10 11-12 11-10 15-10 16-8 15-5 5-1h42l17 1 17-3 28-8zm-94 78-12 3-12 7-9 9-7 14-3 15v19l3 17 5 12 8 10 8 6 14 5h15l11-4 8-7 5-8 3-10 3-17v-17l-3-18-5-15-6-11-7-7-8-3z" fill="#FAB72F"/>
<path transform="translate(1170,271)" d="m0 0 10 2 9 6 8 9 1 3 1 25-1 38h61l31 1 6 4 10 7 4 10v7l-4 14-22 44-17 28-11 16-14 19-13 16-10 11-1 3 9 2 36 12 18 7 10 9 3 4v13l-4 10-7 7-11 6-4 1-25-7-32-10-12-3-1 125-3 9-7 8-5 4-5 2h-14l-8-4-5-5-4-6-2-9v-112l-6 1-18 10-23 9-21 7-4 1h-7l-9-3-5-4-7-10-1-4v-9l2-9 4-6 6-5 11-5 28-11 19-9 12-8 16-12 11-9 15-14 11-11 9-11 11-13 12-17 16-25 13-19 1-2-14-1-164-1-11-2-6-3-6-7-4-10v-9l3-8 9-9 6-4 7-1 83-1 1-57 2-8 6-8 8-6z" fill="#2C3E50"/>
<path transform="translate(1484,1278)" d="m0 0h13l21 3 21 7 15 8 12 11 8 9 8 16 3 10v29l-3 14-7 14-8 10-10 9-14 9-18 8-17 5-15 3h-31l-3 1-1 2v6l5 8 8 6 11 4 7 1h26l14-3 9-4 10-6 12-11 8-8 7-9 4 1 4 6 5 13v18l-3 12-6 12-9 13-10 10-14 9-16 7-16 4-7 1h-32l-19-3-21-6-20-9-18-12-10-9-8-8-9-14-7-14-5-17-2-12v-26l4-24 6-18 8-16 9-14 9-11 11-11 18-13 14-8 17-7 16-4zm-8 61-9 2-8 5-3 4-1 8 3 6 8 6 11 5 5 1h10l11-4 8-7 1-2v-11l-4-7-6-5-4-1z" fill="#FAB72F"/>
<path transform="translate(622,571)" d="m0 0h44l29 1 18 4 17 7 10 7 8 8 6 12 4 16v12l-3 16-4 11v7l4 7 9 11 7 12 5 10 4 15 2 20v14l-3 21-5 19-8 14-9 10-3 1v2l-10 5-16 6-12 2-22 1h-69l-6-1v-2l-5-2-7-5-1-4h-2v-3h-2l-1-9v-227l1-3h2v-3h2l2-4 4-2v-2z" fill="#2C3E50"/>
<path transform="translate(382,1286)" d="m0 0h11l17 4 16 7 14 8 13 10 14 13 10 13 10 16 8 17 6 20 4 20 1 8v24l-4 20-5 14-8 15-8 11-12 13-14 10-16 9-16 6-15 4-21 3h-10l-22-3-20-6-16-8-11-7-12-11-10-11-8-13-7-14-5-17-2-9-2-24v-11l3-22 5-19 8-16 8-13 10-13 7-7 16-12 19-10 17-6 8-2 13-9zm-11 69-9 3-9 6-6 7-6 11-3 12-1 7v28l3 15 5 12 6 8 8 8 10 6 12 3 12-1 12-5 10-9 6-8 5-12 3-13 1-9v-12l-3-17-7-14-9-8-11-5-13-4-8-6-7-3z" fill="#FAB72F"/>
<path transform="translate(656,1265)" d="m0 0h11l17 3 16 7 11 7 10 9 8 11 5 12v13l-4 10-7 9-9 9-9 5-4 1h-9l-5-3 2-6 2-2-1-4-8-5-9-3h-16l-12 4-11 7-7 8-8 16-4 14-1 6v16l3 13 6 12 9 10 9 6 12 4h14l23-4 19-8 11-7 10-9 7-7 8-12 4-5 4 2 6 8 4 10 1 13-2 11-4 13-8 16-9 12-9 10-11 9-16 9-14 5-16 3h-30l-19-3-18-5-18-8-13-9-10-9-7-7-9-14-8-16-5-18-3-19v-36l4-20 5-13 9-17 9-12 9-10 9-9 13-10 19-11 14-6 15-4z" fill="#FAB72F"/>
<path transform="translate(1789,1320)" d="m0 0 23 2 17 3 16 8 8 7 6 8 5 11 7 28 6 27 5 13 6 7 3 1h7l8-5 7-9 12-23 10-25 4-15 2-13 2-1 21 10 10 8 7 8 6 12 3 12v11l-3 15-5 14-10 19-12 19-14 22-36 54-10 14-10 13-12 14-18 18-13 10-14 8-8 3-5 1h-9l-13-4-10-7-7-10-5-11-3-20 1-5 9 2h15l14-5 9-8 3-7 2-13v-24l-4-28-13-63-16-77-5-25z" fill="#FAB72F"/>
<path transform="translate(154,1324)" d="m0 0 29 4 11 4 11 7 6 7 5 10 2 9v23l-4 29-10 47-16 69-6 20-6 12-6 7-10 6-7 2h-17l-10-4-7-8-4-8-8-21-10-19-30-48-12-19-16-26-12-19-11-17-14-23-2-1v-10l21-6 15-3h20l12 3 10 6 8 8 28 42 8 9 6 3 6-1 5-4 4-10 5-25 3-19 2-35z" fill="#FAB72F"/>
<path transform="translate(1656,1204)" d="m0 0 9 1 23 5 16 6 16 9 10 9 7 10 3 10-2 24-8 61-10 77-12 95v15l6 12 3 4-1 4-11 5-18 6-15 3h-20l-9-4-9-6-8-10-6-12-1-4v-12l3-25 13-92 16-120 3-27 1-15v-28z" fill="#FAB72F"/>
<path transform="translate(470,570)" d="m0 0 11 1v2l6 2 8 7 5 10 10 36 10 35 14 50 7 23 9 30 10 36 2 10v13l-4 10-7 6-7 3-9 1-8-3-6-4-7-8-5-16-6-23-3-11-1-1h-50l-4 10-11 32-7 14-7 6-4 2-7 1-9-2-6-3-6-5-4-6-1-5v-11l15-54 5-20 6-18 13-44 13-45 7-23 4-16h2v-5h2l2-5 5-6 5-2v-2z" fill="#2C3E50"/>
<path transform="translate(763,350)" d="m0 0 2 3 5 1-2 1-3 10-5 8-10 8-9 1h-388l-28 1-18 3-19 8-14 11-5 5h-2l-9 18-4 11-3 19-1 27-1 145v55l1 176 1 68 1 23 3 21 3 10 7 14v2h2l4 6 2 4 5 2 3 3 3 1v2l4 1 6 3 15 5 10 2 36 1h86l10 2 2 2 4 1v2l4 2 5 6 2 6 1 12 1 49v25l1 10 3 3 5-1 13-10 11-9 12-8 5-4h2v-2l11-7 10-7 36-27 14-10 24-18 11-8 9-5 9-3h285l72-2h11l14-2 15-5 13-7 7-4 7-5h2v-2l5-2 2-4 4-2 2-4 9-13 8-20 7-31 6-10 4-5 15-10 2 1 1 5 9 3v1l-7 2-9 4-5 3-5 6-4 12-3 18-4 16-7 14-9 12-9 10-14 11-14 8-10 4-17 4h-329l-45 1-9 2-14 10-10 8-5 2v2l-17 12-17 13-12 9-13 10-14 10-18 14-32 24-18 13-5 2h-5l-2-2-2-6-1-10v-31l-1-60-3-10-7-8-4-3-5-1-128-1-11-2-10-4-14-7-11-9-3-3v-2h-2v-2h-2l-6-12-4-9-4-14-2-17v-71l1-56v-378l4-20 5-12 5-9 4-5h2l1-4 11-8 9-5 13-5 20-4h352l58-1 13-1 5-1v-2l6-5h2l2-5 5-8z" fill="#3476A8"/>
<path transform="translate(658,705)" d="m0 0h43l9 2 8 4 7 6 6 12 1 7v35l-4 12-5 5-12 2h-55l-2-2v-81z" fill="#3E98D0"/>
<path transform="translate(763,350)" d="m0 0 3 4-3 9-9 11-8 5-4 1h-341l-79 1-14 2-16 5-14 8-8 7h-2l-2 4-7 10-6 14-3 12-1 7-1 27v452l1 33 3 16 6 16 6 10 7 8 10 7 14 7 17 5 9 1 120 1 10 3 9 8 4 10 1 9 1 86 1 8 5 3 9-5 11-8 10-8 15-11 18-14 11-8 10-7 12-9 9-7 14-10 20-15 13-10 17-12 6-2 14-1 357-1 13-2 15-4 17-8 20-15 11-14 7-11 6-18 5-26 3-9 4-6h2l2-4 12-7 11 3v1l-7 2-9 4-5 3-5 6-4 12-3 18-4 16-7 14-9 12-9 10-14 11-14 8-10 4-17 4h-329l-45 1-9 2-14 10-10 8-5 2v2l-17 12-17 13-12 9-13 10-14 10-18 14-32 24-18 13-5 2h-5l-2-2-2-6-1-10v-31l-1-60-3-10-7-8-4-3-5-1-128-1-11-2-10-4-14-7-11-9-3-3v-2h-2v-2h-2l-6-12-4-9-4-14-2-17v-71l1-56v-378l4-20 5-12 5-9 4-5h2l1-4 11-8 9-5 13-5 20-4h352l58-1 13-1 5-1v-2l6-5h2l2-5 5-8z" fill="#345A7E"/>
<path transform="translate(1640,163)" d="m0 0h59l14 3 14 5 11 6 9 7 8 9 8 15 5 15 2 14v506l-4 20-6 15-9 12-10 10-11 7-17 6-19 3-146 1-7 3-9 7-4 6-1 3-1 96-1 18-1 1h-5l-30-20-19-14-27-18-13-9-21-14-14-10-19-13-34-24-15-9-8-3-372-1-10-2-7-2v-1l9 1 2 1 19 1 34-1h325l12 2 8 3v2l4 1 7 4 5 3v2l4 2 10 8 11 8 8 4v2l4 1 8 6 2 1v2h2v2h3l4 4 9 7 7 4 9 6 5 3 18 13 11 7 11 8 13 9 8 4 9 4 7 5 6 1v-105l3-9 1-2h2v-2l4-3h2v-2l10-5 7-1 38-1h23l27 2h26l7-1 24-1 17-3h3v-2l7-3 5-3h3v-2h3l2-4h2v-2h2v-2h2v-2h2l2-4 8-14 6-12 5-16 1-37v-467l-4-16-2-2-4-11-4-5-4-7-4-6v-2h-2l-5-5-10-6-11-5v-2l-5-1-11-4-7-1-55-1z" fill="#FAB72F"/>
<path transform="translate(818,353)" d="m0 0 2 3v358l1 29 3 17 7 21 9 19 6 9 11 14 5 5 7 6 3 1 5 5 8 5v2l5 2 10 6 15 5 15 4 11 2 17 1 123 1h33l25 1v1h-5v6l-3-3-23-1-171-1-14-3-15-5-10-4-17-11-5-4-3-1v-2l-4-2-13-11-8-8-7-9-5-7-3-5v-3h-2l-6-15-7-24-1-14-1-322v-60l-1-6z" fill="#345A7E"/>
<path transform="translate(487,575)" d="m0 0 5 2 7 8 4 11 8 29 7 24 13 40 5 20 9 28 5 16 4 11 4 12 7 25 2 16-2 12-6 9-9 6-7 2h-11l-12-6-6-7-4-8-7-24-4-20h-49l-9 25-6 18-6 12-9 8-8 3h-9l-12-6-7-6-4-10v-14l4-16 8-26 7-25 12-36 9-30 13-45 3-9 1 4-13 44-11 38-8 26-5 17-10 38-4 13-2 8v11l2 6 5 7 6 4 5 2 8 1 8-2 6-4 4-5 7-16 12-36 2-2h50l3 4 6 25 6 21 4 6 7 6 7 3 8 1 9-3 6-4 4-6 2-6v-13l-4-17-11-40-9-28-18-64-10-35-7-26-5-15-6-8z" fill="#346E9C"/>
<path transform="translate(641,570)" d="m0 0h39l21 1 20 4 16 7 8 5 7 8 4 5 5 12 3 10v23l-6 20v7l6 9 9 10 3 5 3 7 3 8 2 5 2 17 1 23-1 15-3 17-5 16-8 14-11 10-14 7-18 6-18 2h-85l-2-2h72l22-1 12-2 21-8 5-2v-2l8-7 6-9 6-12 5-20 2-17v-14l-2-20-4-15-5-10-8-13-8-10-4-7v-7l5-15 2-12v-12l-4-16-6-12-9-9-12-7-16-6-15-3-54-2z" fill="#3475A6"/>
<path transform="translate(1498,407)" d="m0 0h53l2 2v26l-5 1h-50l-1-2z" fill="#FDD06C"/>
<path transform="translate(1389,407)" d="m0 0h55l1 3-1 25-18 1h-34l-3-1z" fill="#FDD16D"/>
<path transform="translate(1389,489)" d="m0 0h55l1 1v26l-1 1h-55z" fill="#FDD16D"/>
<path transform="translate(1498,489)" d="m0 0h54l1 1v26l-1 1h-54l-1-1v-19z" fill="#FDD06B"/>
<path transform="translate(945,163)" d="m0 0h104v1l-75 1-19 1-17 3-17 6-15 8-10 8-1 2h-2l-2 5-6 13-7 21-1 7-2 51-1 154v284l2 20 2 7-1 4-4-15-1-8v-496l3-19 6-16 6-11 11-12 10-7 15-7 9-3z" fill="#FAB72F"/>
<path transform="translate(656,626)" d="m0 0h38l8 1 2 3v13l-2 7-2 1-22 1h-21l-2-3v-22z" fill="#3E98D0"/>
<path transform="translate(710,575)" d="m0 0 8 1 12 5 10 6 9 8 7 12 3 10 2 11v11l-2 12-5 14v7l6 9 9 12 8 14 4 12 3 26v17l-3 22-5 17-6 12-8 10-6 5-4 4-21 8-11 2-11 1h-85l-2-2h72l22-1 12-2 21-8 5-2v-2l8-7 6-9 6-12 5-20 2-17v-14l-2-20-4-15-5-10-8-13-8-10-4-7v-7l5-15 2-12v-12l-4-16-6-12-9-9-12-7-16-6z" fill="#345A7E"/>
<path transform="translate(658,705)" d="m0 0h43l9 2 8 4 7 6 6 12 1 7v35l-4 12-5 5-12 2h-55l-2-2v-81zm-2 2-1 1v77l2 3h26l25-1 8-1 5-3 5-9 2-16-1-19-3-12-4-7-18-12-10-1z" fill="#3477A8"/>
<path transform="translate(817,354)" d="m0 0h1l1 380 2 22 7 22 5 13 8 14 8 11 8 10 10 9 9 6v2h-3v-2l-4-2-13-11-8-8-7-9-5-7-3-5v-3h-2l-6-15-7-24-1-14-1-322v-60l-1-6z" fill="#3477A8"/>
<path transform="translate(1407,317)" d="m0 0 5 1 5 5 4 5 4 2 3 7 2 3 2 6 1 7h-11l-4-2-7-10-10-16v-3z" fill="#FAB832"/>
<path transform="translate(487,575)" d="m0 0 5 2 7 8 4 11 8 29 7 24 13 40 5 20 9 28 5 16 4 11 4 12 7 25 2 16-2 12-6 9-4 2 7-11 1-5v-12l-3-15-8-28-9-29-10-32-8-30-3-9v-3h-2l-10-34-6-23-5-17-5-10-7-6z" fill="#3477A8"/>
<path transform="translate(876,843)" d="m0 0 5 2 14 9 10 5 14 5 21 4 37 1h53l104 1v6l-3-3-23-1-171-1-14-3-15-5-10-4-17-11z" fill="#3476A8"/>
<path transform="translate(576,1148)" d="m0 0 2 1-12 9-13 10-34 25-13 10-14 10-8 6-17 13-16 11-8 5h-11l-10-5-5-6-5-11-1-5v-9h1l3 16 6 9 1 3 4 2 4 3 3 1h8l8-5 12-9 10-7 13-10h2v-2l16-10 14-11h2v-2l17-12 11-8 18-14 10-7z" fill="#345A7E"/>
<path transform="translate(658,705)" d="m0 0h43l9 2 8 4 7 6 6 12 1 7v35l-4 12-5 5-12 2h-55v-1l53-1 11-2 3-1 2-5 3-7 1-8v-22l-2-14-5-9v-2l-3-1v-2l-5-2-6-4-9-2h-33l-5 1h-5l-1 10h-1v-11z" fill="#345A7E"/>
<path transform="translate(436,624)" d="m0 0 1 4-13 44-11 38-8 26-5 17-10 38-4 13-2 8v11l2 6 5 7 6 4 5 2 7 1 1 2-10-1-10-6-6-7-3-9v-9l7-25 9-31 1-10 12-36 8-26 15-52z" fill="#346893"/>
<path transform="translate(474,700)" d="m0 0 5 2 2 6v16l-2 2-5 1h-7l-3-2v-13l3-8z" fill="#3476A6"/>
<path transform="translate(521,666)" d="m0 0 2 3 8 27 8 29 12 37 5 17 6 21 2 12v12l-3 9-6 7-2-1 5-6 3-8v-13l-4-17-11-40-9-28-16-57z" fill="#345A7E"/>
<path transform="translate(449,778)" d="m0 0h50l3 4 6 25 6 21 4 6 7 6 7 3 8 1 9-3 6-1-5 4-7 2h-11l-12-6-6-7-4-8-7-24-5-21-49-1z" fill="#346791"/>
<path transform="translate(656,624)" d="m0 0h26l21 1 3 3v16l-2 8-3 1h-46l-1-1v-27zm0 2-1 1v22l2 3h21l22-1 3-3 1-5v-13l-2-3-8-1z" fill="#34658F"/>
<path transform="translate(903,118)" d="m0 0h3l-1 3-9 4h-2l-2 4-10 6-11 8h-2v3l-5 5h-2v2l-8 5-2-1 7-8 8-8 13-10 13-8z" fill="#385D8E"/>
<path transform="translate(397,754)" d="m0 0 1 3-9 31-7 25v9l4 11 8 7 10 4 10 1-2 2h-9l-12-6-7-6-4-10v-14l4-16 8-26 4-14z" fill="#3477A8"/>
<path transform="translate(751,830)" d="m0 0 2 1-8 4-18 6-18 2h-85l-2-2h72l22-1 12-2 18-7z" fill="#346791"/>
<path transform="translate(487,575)" d="m0 0 5 2 7 8 4 11 8 29 7 24 4 12-1 5-2-3-10-35-7-26-5-15-6-8z" fill="#346792"/>
<path transform="translate(398,753)" d="m0 0h1l-1 8-9 33-5 18v11l2 6 5 7 6 4 5 2 7 1 1 2-10-1-10-6-6-7-3-9v-9l7-25z" fill="#345A7E"/>
<path transform="translate(1548,816)" d="m0 0h70v1l-63 2-10 1-10 6-4 2 4-5 9-6z" fill="#355A83"/>
<path transform="translate(608,1125)" d="m0 0 3 1-18 14-19 14-13 10-9 7-2-1 8-7 13-10 14-10 17-13h2l1-3h3z" fill="#4D6BFC"/>
<path transform="translate(654,718)" d="m0 0h1l1 67 1 2 24 1v1h-26l-1-1z" fill="#3477A8"/>
<path transform="translate(1443,681)" d="m0 0h1l1 30 3 9 6 7 9 6-7-1-5-4-3-3-2-1-3-12z" fill="#FAB72F"/>
<path transform="translate(474,700)" d="m0 0 5 2 2 6v16l-2 2h-5l4-2 1-1v-11l-2-8h-6l-3 3-2 9v8l1 2-3-1v-13l3-8z" fill="#345A7E"/>
<path transform="translate(512,828)" d="m0 0h2l4 6 7 6 7 3 8 1 9-3 6-1-5 4-7 2h-11l-12-6-6-7z" fill="#346A96"/>
<path transform="translate(654,625)" d="m0 0h2v24l1 2 44 1v1h-46l-1-1z" fill="#346289"/>
<path transform="translate(449,778)" d="m0 0h50l3 4 1 9-1-4h-2l-2-7-49-1z" fill="#345C81"/>
<path transform="translate(406,723)" d="m0 0h1v7l-4 13-3 10-3 1 2-10z" fill="#346B97"/>
<path transform="translate(658,705)" d="m0 0h41v1l-33 1-5 1h-5l-1 10h-1v-11z" fill="#345D82"/>
<path transform="translate(702,627)" d="m0 0h2l1 2v21l-1 2h-26v-1l24-1 1-7v-13z" fill="#3472A2"/>
<path transform="translate(1759,778)" d="m0 0 1 3-7 10-7 7-6 4-2-1 10-9 7-8z" fill="#3A5E9F"/>
<path transform="translate(1370,279)" d="m0 0 6 3 4 5v5h-3l-7-9z" fill="#FAB832"/>
<path transform="translate(487,575)" d="m0 0 5 2 7 8 4 11 2 6-1 4-4-11-4-10-6-7z" fill="#346B96"/>
<path transform="translate(926,165)" d="m0 0h6l-3 2-13 5-9 5h-2l2-4z" fill="#3E61B4"/>
<path transform="translate(608,1125)" d="m0 0 3 1-18 14-5 4-2-1 9-8 7-5h2l1-3h3z" fill="#4968EC"/>
<path transform="translate(426,835)" d="m0 0 1 3-7 6-2 1h-8l1-2 9-3z" fill="#34648C"/>
<path transform="translate(766,815)" d="m0 0v3l-6 7-5 5-6 1 3-3h2v-2l8-7z" fill="#345B80"/>
<path transform="translate(469,715)" d="m0 0 3 2 1 6-1 1h-5v-7z" fill="#3E98D0"/>
<path transform="translate(654,777)" d="m0 0h1l2 10 24 1v1h-26l-1-1z" fill="#346E9B"/>
<path transform="translate(1201,587)" d="m0 0 8 1 4 2v1h-13z" fill="#FAB72F"/>
<path transform="translate(901,177)" d="m0 0 4 1-9 7-6 5 1-4 5-5h2v-2z" fill="#3D60AF"/>
<path transform="translate(517,649)" d="m0 0 2 3 3 9-1 5-2-3-2-7z" fill="#346B97"/>
<path transform="translate(1544,817)" d="m0 0 3 1-5 4-7 4-4 2 4-5z" fill="#3E60B1"/>
<path transform="translate(501,787)" d="m0 0 1 4h2l1 5v9l-2-4-2-8z" fill="#346E9B"/>
<path transform="translate(1591,332)" d="m0 0 1 3-4 9-1 3h-2l-1-3z" fill="#FAB72F"/>
<path transform="translate(406,723)" d="m0 0h1v7l-3 8-2-1 3-11z" fill="#346C99"/>
<path transform="translate(751,830)" d="m0 0 2 1-8 4-5 1 1-3z" fill="#346A95"/>
<path transform="translate(913,170)" d="m0 0h3v2l-9 5h-2l2-4z" fill="#3E60B1"/>
</svg>
