<?xml version="1.0" ?><svg style="enable-background:new 0 0 512 512;" version="1.1" viewBox="0 0 512 512" xml:space="preserve" xmlns="http://www.w3.org/2000/svg" xmlns:xlink="http://www.w3.org/1999/xlink"><style type="text/css">
	.st0{display:none;}
	.st1{fill:#DEFFFE;}
	.st2{fill:#004358;}
	.st3{fill:#04BFBF;}
	.st4{fill:#BEDB39;}
</style><g id="Layer_1"/><g class="st0" id="Layer_3"/><g class="st0" id="Layer_5"/><g id="Layer_4"><g><path class="st1" d="M265.128,192.241v87.506c0,8.836-7.163,16-16,16h-2.255v15.636h18.917c11.58,0,21-9.421,21-21v-98.142    H265.128z"/><path class="st2" d="M249.128,107.616H26c-11.58,0-21,9.421-21,21v151.13c0,7.85,4.317,14.886,11.05,18.494v13.504    c0,4.968,2.763,9.429,7.212,11.641c1.849,0.919,3.832,1.372,5.803,1.372c2.771,0,5.517-0.895,7.831-2.647l28.224-21.363h184.008    c11.58,0,21-9.421,21-21v-151.13C270.128,117.037,260.708,107.616,249.128,107.616z"/><g><g><path class="st4" d="M181.39,176.703H93.738c-2.761,0-5-2.238-5-5s2.239-5,5-5h87.652c2.761,0,5,2.238,5,5      S184.151,176.703,181.39,176.703z"/></g><g><path class="st4" d="M137.564,176.703c-2.761,0-5-2.238-5-5v-19.565c0-2.762,2.239-5,5-5s5,2.238,5,5v19.565      C142.564,174.465,140.325,176.703,137.564,176.703z"/></g><g><path class="st4" d="M97.693,261.225c-2.761,0-5-2.238-5-5s2.239-5,5-5c23.279,0,39.945-13.046,49.536-38.775      c7.479-20.066,7.676-40.565,7.677-40.77c0.015-2.752,2.25-4.975,5-4.975c0.008,0,0.016,0,0.024,0      c2.76,0.013,4.987,2.259,4.976,5.019c-0.004,0.898-0.182,22.265-8.216,43.976C145.667,245.482,125.267,261.225,97.693,261.225z"/></g><g><path class="st4" d="M177.435,261.225c-27.574,0-47.974-15.742-58.996-45.525c-8.034-21.711-8.212-43.077-8.216-43.976      c-0.011-2.762,2.218-5.009,4.979-5.021c2.791-0.049,5.009,2.219,5.021,4.979c0.003,0.361,0.227,20.779,7.676,40.767      c9.59,25.729,26.257,38.775,49.536,38.775c2.761,0,5,2.238,5,5S180.196,261.225,177.435,261.225z"/></g></g><g><path class="st3" d="M374.436,226.763c-20.09,0-36.434,16.345-36.434,36.435v72.652c0,2.762,2.239,5,5,5s5-2.238,5-5v-41.323     h52.868v41.323c0,2.762,2.239,5,5,5s5-2.238,5-5v-72.652C410.87,243.107,394.526,226.763,374.436,226.763z M400.87,284.526     h-52.868v-21.329c0-14.576,11.858-26.435,26.434-26.435s26.434,11.858,26.434,26.435V284.526z"/><path class="st3" d="M436.785,82.62c-2.621-0.875-5.451,0.546-6.323,3.165l-6.765,20.332     C380.805,58.362,320.192,31.133,256,31.133c-41.549,0-82.146,11.411-117.402,33c-2.355,1.441-3.095,4.52-1.653,6.875     c1.442,2.355,4.521,3.097,6.875,1.652C177.504,52.035,216.295,41.133,256,41.133c61.21,0,119.019,25.915,159.999,71.38     l-20.938,3.375c-2.726,0.439-4.58,3.006-4.141,5.732c0.396,2.457,2.52,4.205,4.931,4.205c0.264,0,0.532-0.021,0.802-0.064     l29.814-4.806c1.805-0.301,3.372-1.614,3.948-3.357l9.535-28.654C440.822,86.322,439.405,83.492,436.785,82.62z"/></g><path class="st2" d="M375.055,441.521c-1.442-2.354-4.519-3.095-6.875-1.652c-33.683,20.625-72.474,31.526-112.18,31.526    c-61.21,0-119.019-25.915-159.999-71.379l20.938-3.375c2.726-0.439,4.58-3.006,4.14-5.732s-3.009-4.572-5.732-4.141l-29.814,4.807    c-1.807,0.288-3.37,1.622-3.948,3.357l-9.535,28.654c-0.872,2.621,0.545,5.451,3.166,6.323c0.524,0.175,1.056,0.257,1.58,0.257    c2.094,0,4.046-1.326,4.743-3.422l6.765-20.332c42.892,47.755,103.505,74.983,167.697,74.983    c41.55,0,82.147-11.411,117.402-32.999C375.757,446.954,376.497,443.876,375.055,441.521z"/><g><path class="st2" d="M468.116,404.382c-2.771,0-5.517-0.895-7.832-2.646l-28.224-21.364H262.872c-11.58,0-21-9.421-21-21v-47.988     c0-2.762,2.239-5,5-5s5,2.238,5,5v47.988c0,6.065,4.935,11,11,11h170.867c1.089,0,2.149,0.355,3.018,1.014l29.563,22.377     c1.338,1.014,2.648,0.544,3.146,0.294c0.5-0.249,1.664-1.009,1.664-2.687v-15.998c0-2.762,2.239-5,5-5H486     c6.065,0,11-4.935,11-11V208.24c0-6.065-4.935-11-11-11H283.44c-2.761,0-5-2.238-5-5s2.239-5,5-5H486c11.58,0,21,9.421,21,21     v151.131c0,11.579-9.42,21-21,21h-4.87v10.998c0,4.968-2.763,9.429-7.211,11.641C472.07,403.929,470.087,404.382,468.116,404.382     z"/></g></g></g></svg>