<?xml version="1.0" ?><svg xmlns="http://www.w3.org/2000/svg" xmlns:xlink="http://www.w3.org/1999/xlink" version="1.1" id="Layer_1" viewBox="0 0 100 100" style="enable-background:new 0 0 100 100;" xml:space="preserve"><style type="text/css">
	.st0{fill:#FFCACA;}
	.st1{fill:#333333;}
</style><g><circle class="st0" cx="66.6" cy="33.5" r="16.6"/><g><path class="st1" d="M76.6,44.7H58.7V34.6c0-3.7-3-6.6-6.6-6.6H23.4c-3.7,0-6.6,3-6.6,6.6v19.1c0,3.7,3,6.6,6.6,6.6h1.4v3.5    c0,1.1,0.7,2,1.7,2.4c0.3,0.1,0.6,0.2,0.9,0.2c0.7,0,1.5-0.3,2-0.9l4.2-5.1h7.6v10.1c0,3.7,3,6.6,6.6,6.6h18.4l4.2,5.1    c0.5,0.6,1.2,0.9,2,0.9c0.3,0,0.6-0.1,0.9-0.2c1-0.4,1.7-1.3,1.7-2.4v-3.5h1.4c3.7,0,6.6-3,6.6-6.6V51.3    C83.2,47.7,80.2,44.7,76.6,44.7z M33.1,58c-0.4,0-0.7,0.2-0.9,0.4l-4.6,5.5c0,0-0.1,0.1-0.2,0.1c-0.1,0-0.1-0.1-0.1-0.2v-4.7    c0-0.7-0.5-1.2-1.2-1.2h-2.6c-2.4,0-4.3-1.9-4.3-4.3V34.6c0-2.4,1.9-4.3,4.3-4.3h28.6c2.4,0,4.3,1.9,4.3,4.3v10.1h-8.4    c-1.7,0-3.3,0.7-4.5,1.8c0,0,0,0,0,0c0-0.4-0.2-0.7-0.4-0.9l-4.2-9.2c0-0.1-0.1-0.1-0.1-0.1c0-0.1-0.1-0.1-0.1-0.2    c-0.1-0.1-0.1-0.1-0.2-0.1c0,0-0.1-0.1-0.1-0.1c0,0,0,0,0,0c-0.1,0-0.2,0-0.2-0.1c-0.1,0-0.1,0-0.2,0c-0.1,0-0.1,0-0.2,0    c-0.1,0-0.2,0-0.2,0.1c0,0,0,0,0,0c-0.1,0-0.1,0.1-0.1,0.1c-0.1,0-0.1,0.1-0.2,0.1c-0.1,0.1-0.1,0.1-0.1,0.2c0,0-0.1,0.1-0.1,0.1    l-7.2,15.9c-0.3,0.6,0,1.3,0.6,1.6c0.2,0.1,0.3,0.1,0.5,0.1c0.5,0,0.9-0.3,1.1-0.7l2.5-5.6h7.1l0.5,1.1c-0.3,0.8-0.5,1.7-0.5,2.6    V58H33.1z M37.8,39.8l2.5,5.5h-5L37.8,39.8z M80.8,70.4c0,2.4-1.9,4.3-4.3,4.3h-2.6c-0.7,0-1.2,0.5-1.2,1.2v4.7c0,0,0,0.1-0.1,0.2    c-0.1,0-0.2,0-0.2-0.1l-4.6-5.5c-0.2-0.3-0.6-0.4-0.9-0.4H47.9c-2.4,0-4.3-1.9-4.3-4.3V51.3c0-2.4,1.9-4.3,4.3-4.3h28.6    c2.4,0,4.3,1.9,4.3,4.3V70.4z"/><path class="st1" d="M69.8,56.4h-6.4v-3.1c0-0.7-0.5-1.2-1.2-1.2s-1.2,0.5-1.2,1.2v3.1h-6.4c-0.7,0-1.2,0.5-1.2,1.2    s0.5,1.2,1.2,1.2h10.6c-0.3,2.7-1.7,5.1-3.7,6.8c-1.3-1-2.3-2.4-3-4c-0.3-0.6-0.9-0.9-1.6-0.6c-0.6,0.3-0.9,1-0.6,1.6    c0.7,1.7,1.8,3.2,3.1,4.4c-1.4,0.7-2.9,1-4.5,1h-0.3c-0.7,0-1.2,0.5-1.2,1.2s0.5,1.2,1.2,1.2H55c2.4,0,4.6-0.7,6.6-1.8    c1.9,1.2,4.2,1.8,6.6,1.8h0.3c0.7,0,1.2-0.5,1.2-1.2s-0.5-1.2-1.2-1.2h-0.3c-1.6,0-3.1-0.4-4.5-1c2.2-2.1,3.7-4.9,4-8.1h2.1    c0.7,0,1.2-0.5,1.2-1.2S70.4,56.4,69.8,56.4z"/><path class="st1" d="M67.4,25c0.8-0.5,1.8-0.7,2.8-0.6c1.1,0.1,2,0.5,2.8,1.1c0.8,0.7,1.3,1.6,1.5,2.5c0.1,0.3,0.1,0.7,0.1,1.1    c-0.4-0.3-1-0.3-1.4,0c-0.5,0.4-0.6,1.1-0.3,1.7l1.3,1.8c0.2,0.3,0.5,0.4,0.8,0.5c0.1,0,0.1,0,0.2,0c0.3,0,0.5-0.1,0.7-0.2    l1.8-1.3c0.5-0.4,0.6-1.1,0.3-1.7c-0.2-0.3-0.6-0.5-1-0.5c0,0,0,0,0,0c0-0.6,0-1.2-0.1-1.8c-0.3-1.5-1.1-2.8-2.3-3.9    c-1.1-1-2.5-1.6-4.1-1.7c-1.6-0.2-3.1,0.2-4.3,1c-0.5,0.4-0.7,1.1-0.3,1.6C66.1,25.2,66.8,25.3,67.4,25z"/><path class="st1" d="M62.7,30L62.7,30c0,0.6,0,1.1,0.1,1.6c0.3,1.5,1.1,2.8,2.3,3.9c1.1,1,2.5,1.6,4.1,1.7c0.2,0,0.5,0,0.7,0    c1.3,0,2.6-0.4,3.6-1.1c0.5-0.4,0.7-1.1,0.3-1.6c-0.4-0.5-1.1-0.7-1.6-0.3c-0.8,0.5-1.8,0.7-2.8,0.6c-1.1-0.1-2-0.5-2.8-1.1    c-0.8-0.7-1.3-1.6-1.5-2.5c-0.1-0.3-0.1-0.6-0.1-1c0.4,0.3,1,0.3,1.4,0c0.5-0.4,0.6-1.1,0.3-1.7l-1.3-1.8    c-0.2-0.3-0.5-0.4-0.8-0.5c-0.3,0-0.6,0-0.9,0.2L62,27.9c-0.5,0.4-0.6,1.1-0.3,1.7C61.9,29.9,62.3,30,62.7,30z"/></g></g></svg>